<svg width="48" height="48" viewBox="0 0 48 48" fill="none" xmlns="http://www.w3.org/2000/svg">
<path d="M29.1641 38.8315L27.4556 43.2055C27.3396 43.5198 27.1386 43.7806 26.8526 43.988C26.5669 44.1953 26.2501 44.299 25.9021 44.299C25.2971 44.299 24.8248 44.0563 24.4851 43.571C24.1451 43.086 24.0831 42.5576 24.2991 41.986L32.1796 21.2955C32.3289 20.8731 32.5858 20.5336 32.9501 20.277C33.3144 20.0206 33.7159 19.8925 34.1546 19.8925H35.7956C36.2263 19.8925 36.6258 20.0206 36.9941 20.277C37.3624 20.5336 37.6213 20.8731 37.7706 21.2955L45.6391 41.962C45.8631 42.5416 45.8031 43.076 45.4591 43.565C45.1154 44.0543 44.6371 44.299 44.0241 44.299C43.6508 44.299 43.3173 44.1933 43.0236 43.982C42.7296 43.7706 42.5246 43.4951 42.4086 43.1555L40.7121 38.8315H29.1641ZM17.9351 28.3925L9.1501 37.139C8.80243 37.4536 8.4026 37.6173 7.9506 37.63C7.49893 37.6426 7.1031 37.475 6.7631 37.127C6.41543 36.7873 6.2416 36.3895 6.2416 35.9335C6.2416 35.4778 6.41543 35.08 6.7631 34.74L15.5601 25.9435C13.8041 24.1131 12.3431 22.2856 11.1771 20.461C10.0111 18.6363 9.1401 16.8518 8.5641 15.1075H12.3286C12.8139 16.4451 13.5129 17.7981 14.4256 19.1665C15.3383 20.5345 16.5326 21.9771 18.0086 23.4945C19.5263 21.8945 20.9231 19.9581 22.1991 17.6855C23.4751 15.4125 24.3844 13.2198 24.9271 11.1075H3.3446C2.8556 11.1075 2.44943 10.946 2.1261 10.623C1.8031 10.2996 1.6416 9.89346 1.6416 9.40446C1.6416 8.91513 1.8031 8.50696 2.1261 8.17996C2.44943 7.85263 2.8556 7.68896 3.3446 7.68896H16.1416V5.40446C16.1416 4.91513 16.3031 4.50696 16.6261 4.17996C16.9494 3.85263 17.3556 3.68896 17.8446 3.68896C18.3339 3.68896 18.7421 3.85263 19.0691 4.17996C19.3964 4.50696 19.5601 4.91513 19.5601 5.40446V7.68896H32.3446C32.8339 7.68896 33.2421 7.85263 33.5691 8.17996C33.8964 8.50696 34.0601 8.91513 34.0601 9.40446C34.0601 9.89346 33.8964 10.2996 33.5691 10.623C33.2421 10.946 32.8339 11.1075 32.3446 11.1075H28.5296C27.9549 13.6758 26.9199 16.3163 25.4246 19.029C23.9293 21.7416 22.2489 24.0591 20.3836 25.9815L25.0536 30.739L23.6981 34.3555L17.9351 28.3925ZM30.3456 35.663H39.5306L34.9381 23.502L30.3456 35.663Z" fill="#060C01"/>
</svg>
