<svg width="86" height="86" viewBox="0 0 86 86" fill="none" xmlns="http://www.w3.org/2000/svg">
<rect width="86" height="86" rx="43" fill="#5764FA"/>
<path d="M49 39C49 40.5913 48.3679 42.1174 47.2426 43.2426C46.1174 44.3679 44.5913 45 43 45C41.4087 45 39.8826 44.3679 38.7574 43.2426C37.6321 42.1174 37 40.5913 37 39C37 37.4087 37.6321 35.8826 38.7574 34.7574C39.8826 33.6321 41.4087 33 43 33C44.5913 33 46.1174 33.6321 47.2426 34.7574C48.3679 35.8826 49 37.4087 49 39Z" stroke="white" stroke-width="4" stroke-linecap="round" stroke-linejoin="round"/>
<path d="M59 39C59 54.2363 43 63 43 63C43 63 27 54.2363 27 39C27 34.7565 28.6857 30.6869 31.6863 27.6863C34.6869 24.6857 38.7565 23 43 23C47.2435 23 51.3131 24.6857 54.3137 27.6863C57.3143 30.6869 59 34.7565 59 39Z" stroke="white" stroke-width="4" stroke-linecap="round" stroke-linejoin="round"/>
</svg>
