<svg width="31" height="39" viewBox="0 0 31 39" fill="none" xmlns="http://www.w3.org/2000/svg">
<path d="M29 23.5385V18.8269C29 17.2203 28.36 15.6795 27.2207 14.5435C26.0814 13.4075 24.5362 12.7692 22.925 12.7692H20.225C19.6879 12.7692 19.1729 12.5565 18.7931 12.1778C18.4133 11.7991 18.2 11.2855 18.2 10.75V8.05769C18.2 6.45109 17.56 4.91029 16.4207 3.77426C15.2814 2.63822 13.7362 2 12.125 2H8.75M12.8 2H4.025C2.9072 2 2 2.90462 2 4.01923V34.9808C2 36.0954 2.9072 37 4.025 37H26.975C28.0928 37 29 36.0954 29 34.9808V18.1538C29 13.8696 27.2932 9.76079 24.2551 6.73135C21.217 3.70192 17.0965 2 12.8 2Z" stroke="#FFFBFB" stroke-width="4" stroke-linecap="round" stroke-linejoin="round"/>
</svg>
