<svg width="39" height="39" viewBox="0 0 39 39" fill="none" xmlns="http://www.w3.org/2000/svg">
<path d="M2 10.0769C2 24.9456 14.0544 37 28.9231 37H32.9615C34.0326 37 35.0598 36.5745 35.8172 35.8172C36.5745 35.0598 37 34.0326 37 32.9615V30.499C37 29.5728 36.37 28.7651 35.4708 28.5408L27.5321 26.5556C26.7423 26.3582 25.9131 26.6544 25.4267 27.3041L23.6856 29.6249C23.1795 30.2997 22.3054 30.5977 21.5138 30.3069C18.5754 29.2266 15.9069 27.5205 13.6932 25.3068C11.4795 23.0931 9.77336 20.4246 8.69308 17.4862C8.40231 16.6946 8.70026 15.8205 9.37513 15.3144L11.6959 13.5733C12.3474 13.0869 12.6418 12.2559 12.4444 11.4679L10.4592 3.52923C10.35 3.09253 10.098 2.70485 9.74317 2.42778C9.38838 2.15072 8.95118 2.00015 8.50103 2H6.03846C4.96739 2 3.9402 2.42548 3.18284 3.18284C2.42548 3.9402 2 4.96739 2 6.03846V10.0769Z" stroke="white" stroke-width="4" stroke-linecap="round" stroke-linejoin="round"/>
</svg>
