<svg width="40" height="29" viewBox="0 0 40 29" fill="none" xmlns="http://www.w3.org/2000/svg">
<path d="M26.9148 11.5748L35.6182 2.98594C35.8116 2.79531 36.058 2.66553 36.3261 2.61296C36.5942 2.5604 36.8721 2.58743 37.1246 2.69063C37.3772 2.79382 37.5931 2.96856 37.745 3.19278C37.897 3.41699 37.9783 3.68062 37.9785 3.95037V24.6583C37.9783 24.9281 37.897 25.1917 37.745 25.4159C37.5931 25.6401 37.3772 25.8149 37.1246 25.9181C36.8721 26.0213 36.5942 26.0483 36.3261 25.9957C36.058 25.9432 35.8116 25.8134 35.6182 25.6228L26.9148 17.0339M6.17039 26.5872H22.7659C23.8663 26.5872 24.9216 26.1558 25.6996 25.388C26.4777 24.6202 26.9148 23.5788 26.9148 22.4929V6.11579C26.9148 5.02992 26.4777 3.98852 25.6996 3.22069C24.9216 2.45287 23.8663 2.02151 22.7659 2.02151H6.17039C5.07004 2.02151 4.01475 2.45287 3.23669 3.22069C2.45862 3.98852 2.02151 5.02992 2.02151 6.11579V22.4929C2.02151 23.5788 2.45862 24.6202 3.23669 25.388C4.01475 26.1558 5.07004 26.5872 6.17039 26.5872Z" stroke="white" stroke-width="4" stroke-linecap="round" stroke-linejoin="round"/>
</svg>
