<svg width="24" height="24" viewBox="0 0 24 24" fill="none" xmlns="http://www.w3.org/2000/svg">
<path d="M21 7.25V17.75C21 18.3467 20.769 18.919 20.3579 19.341C19.9468 19.7629 19.3891 20 18.8077 20H4.19231C3.61087 20 3.05325 19.7629 2.64211 19.341C2.23097 18.919 2 18.3467 2 17.75V7.25M21 7.25C21 6.65326 20.769 6.08097 20.3579 5.65901C19.9468 5.23705 19.3891 5 18.8077 5H4.19231C3.61087 5 3.05325 5.23705 2.64211 5.65901C2.23097 6.08097 2 6.65326 2 7.25M21 7.25V7.493C21 7.87715 20.9043 8.25491 20.7218 8.5903C20.5393 8.92569 20.2761 9.20754 19.9574 9.409L12.6497 14.024C12.304 14.2425 11.906 14.3582 11.5 14.3582C11.094 14.3582 10.696 14.2425 10.3503 14.024L3.04256 9.41C2.72387 9.20854 2.46074 8.92669 2.27825 8.5913C2.09575 8.25591 1.99996 7.87815 2 7.494V7.25" stroke="black" stroke-width="1.5" stroke-linecap="round" stroke-linejoin="round"/>
</svg>
