<svg width="24" height="24" viewBox="0 0 24 24" fill="none" xmlns="http://www.w3.org/2000/svg">
<path d="M4 8.46154C4 14.8338 9.16615 20 15.5385 20H17.2692C17.7283 20 18.1685 19.8177 18.4931 19.4931C18.8177 19.1685 19 18.7283 19 18.2692V17.2138C19 16.8169 18.73 16.4708 18.3446 16.3746L14.9423 15.5238C14.6038 15.4392 14.2485 15.5662 14.04 15.8446L13.2938 16.8392C13.0769 17.1285 12.7023 17.2562 12.3631 17.1315C11.1038 16.6686 9.96012 15.9374 9.01137 14.9886C8.06262 14.0399 7.33144 12.8962 6.86846 11.6369C6.74385 11.2977 6.87154 10.9231 7.16077 10.7062L8.15538 9.96C8.43462 9.75154 8.56077 9.39538 8.47615 9.05769L7.62538 5.65538C7.57857 5.46823 7.47055 5.30208 7.3185 5.18334C7.16645 5.06459 6.97908 5.00006 6.78615 5H5.73077C5.27174 5 4.83151 5.18235 4.50693 5.50693C4.18235 5.83151 4 6.27174 4 6.73077V8.46154Z" stroke="black" stroke-width="1.5" stroke-linecap="round" stroke-linejoin="round"/>
</svg>
