<svg width="48" height="48" viewBox="0 0 48 48" fill="none" xmlns="http://www.w3.org/2000/svg">
<path d="M23.9999 40.8046C27.4933 39.6059 30.3904 37.4662 32.6914 34.3856C34.9921 31.3046 36.3424 27.8427 36.7424 24.0001H23.9999V7.36957L11.1074 12.1836V21.9001C11.1074 22.2921 11.1158 22.6337 11.1324 22.9251C11.1491 23.2164 11.1908 23.5747 11.2574 24.0001H23.9999V40.8046ZM23.9999 44.0871C23.8093 44.0871 23.6271 44.0684 23.4534 44.0311C23.2794 43.9937 23.1011 43.9377 22.9184 43.8631C18.2451 42.2964 14.5406 39.4522 11.8049 35.3306C9.06893 31.2089 7.70093 26.7154 7.70093 21.8501V12.1336C7.70093 11.4126 7.90626 10.7559 8.31693 10.1636C8.72726 9.57124 9.25959 9.14641 9.91393 8.88907L22.8064 4.07507C23.2131 3.92574 23.6109 3.85107 23.9999 3.85107C24.3889 3.85107 24.7868 3.92574 25.1934 4.07507L38.0859 8.88907C38.7403 9.14641 39.2746 9.57124 39.6889 10.1636C40.1036 10.7559 40.3109 11.4126 40.3109 12.1336V21.8501C40.3109 26.7154 38.9409 31.2089 36.2009 35.3306C33.4613 39.4522 29.7548 42.2964 25.0814 43.8631C24.8988 43.9377 24.7204 43.9937 24.5464 44.0311C24.3728 44.0684 24.1906 44.0871 23.9999 44.0871Z" fill="#060C01"/>
</svg>
